<svg width="960" height="960" viewBox="0 0 960 960" fill="none" xmlns="http://www.w3.org/2000/svg">
  <path d="M841.5 495.2C809.9 646.9 675.2 754.6 528.2 808.3C372.7 865.1 188.4 870.3 102.7 727.9C16.8 585.3 67.4 405.5 165.8 271.2C257.5 146 418.6 72.2 573.6 100.8C730.8 129.9 874.1 228.5 899.8 383.6C905.7 419.5 898.8 458.6 841.5 495.2Z" fill="#B73B3B"/>
  <path d="M745.4 451.3C715.5 574.2 605.1 663.6 488.8 706.6C359 754.6 200.2 757.8 127.4 641.9C55.6 527.8 101.4 380.4 180.6 271.7C256.6 167.2 390.2 106.6 522 129.4C659.1 153 784 236.8 810.2 363.6C817.4 398.3 813.4 435.9 745.4 451.3Z" fill="#C94A4A"/>
</svg>
