<svg width="1440" height="960" viewBox="0 0 1440 960" fill="none" xmlns="http://www.w3.org/2000/svg">
  <path d="M0 630.3C152 573.6 304 516.8 456 512.8C608 508.7 760 557.4 912 557.1C1064 556.9 1216 507.9 1368 478.5L1440 464.5V960H1368C1216 960 1064 960 912 960C760 960 608 960 456 960C304 960 152 960 76 960H0V630.3Z" fill="#0E3C3F"/>
  <path d="M0 700.7C152 656 304 611.3 456 602.5C608 593.6 760 620.7 912 604.7C1064 588.7 1216 529.6 1368 508L1440 497.3V960H1368C1216 960 1064 960 912 960C760 960 608 960 456 960C304 960 152 960 76 960H0V700.7Z" fill="#144C50"/>
</svg>
